<svg id="Layer_1" data-name="Layer 1" xmlns="http://www.w3.org/2000/svg" viewBox="0 0 873.9 207.21"><defs><style>.cls-1{fill:#1d4286;}.cls-2{fill:#8f63cc;}.cls-3{fill:#5ddbcf;}</style></defs><path class="cls-1" d="M261.36,77.94h52.47l31,78.43L375,77.94h52.47l-59.09,137H321.25Z" transform="translate(-9.89 -10.9)"/><path class="cls-1" d="M442.61,36.86c0-13.77,11.66-26,26.5-26,14.31,0,26,12.19,26,26,0,14.31-11.65,26.5-26,26.5A26.58,26.58,0,0,1,442.61,36.86Zm.53,41.08h51.14v137H443.14Z" transform="translate(-9.89 -10.9)"/><path class="cls-1" d="M616.69,77.92v40.26c-27,0-42.93,13.81-42.93,38.72v58H522.63v-137h51.14v24.37C582.78,85.35,598.14,77.92,616.69,77.92Z" transform="translate(-9.89 -10.9)"/><path class="cls-1" d="M724.28,204.07c-8.48,8.21-23.06,14-35.25,14-27.29,0-46.37-19.08-46.37-46.37V118.21H625.44V77.94h17.22V40.31h48.76V77.94h27v40.27h-27v43.46c0,8.21,4.77,14,11.66,14,4.77,0,9.8-1.59,12.45-4Z" transform="translate(-9.89 -10.9)"/><path class="cls-1" d="M883.79,77.94v137H832.65V201.15c-8.48,10.6-22.26,17-38.69,17-29.41,0-50.34-22-50.34-53V77.94h48.75v75.25c0,13.25,8.48,22.52,20.67,22.52,11.4,0,19.61-8.74,19.61-20.93V77.94Z" transform="translate(-9.89 -10.9)"/><rect class="cls-2" x="164.32" y="149.22" width="54.77" height="54.77" rx="10.28"/><rect class="cls-2" x="82.17" y="67.07" width="54.77" height="54.77" rx="10.28"/><rect class="cls-2" y="149.22" width="54.77" height="54.77" rx="10.28"/><path class="cls-3" d="M218.71,78H184.49a10.28,10.28,0,0,0-10.23,10.37v17a54.82,54.82,0,0,1-109.63,0v-17A10.27,10.27,0,0,0,54.41,78H20.18A10.27,10.27,0,0,0,10,88.33V122.4a10.27,10.27,0,0,0,10.22,10.37h17A54.67,54.67,0,0,1,92,187.44v17.19a10.27,10.27,0,0,0,10.37,10.22h34.08a10.28,10.28,0,0,0,10.37-10.22V187.44a54.63,54.63,0,0,1,54.67-54.67h17.18a10.28,10.28,0,0,0,10.23-10.37V88.33A10.28,10.28,0,0,0,218.71,78Z" transform="translate(-9.89 -10.9)"/></svg>